<mxfile host="65bd71144e">
    <diagram id="D35L0IYPCzQzZZ2Qau-I" name="Page-1">
        <mxGraphModel dx="954" dy="649" grid="1" gridSize="10" guides="1" tooltips="1" connect="1" arrows="1" fold="1" page="1" pageScale="1" pageWidth="850" pageHeight="1100" math="0" shadow="0">
            <root>
                <mxCell id="0"/>
                <mxCell id="1" parent="0"/>
                <mxCell id="2" value="リバーシ&lt;br&gt;&lt;div style=&quot;text-align: justify;&quot;&gt;&lt;span style=&quot;background-color: initial;&quot;&gt;アプリケーション&lt;/span&gt;&lt;/div&gt;" style="rounded=0;whiteSpace=wrap;html=1;verticalAlign=top;gradientColor=none;fillColor=none;" parent="1" vertex="1">
                    <mxGeometry x="250" y="180" width="470" height="500" as="geometry"/>
                </mxCell>
                <mxCell id="3" value="プレイヤー" style="shape=umlActor;verticalLabelPosition=bottom;verticalAlign=top;html=1;outlineConnect=0;fillColor=none;gradientColor=none;" parent="1" vertex="1">
                    <mxGeometry x="110" y="315" width="30" height="60" as="geometry"/>
                </mxCell>
                <mxCell id="6" value="対戦する" style="ellipse;whiteSpace=wrap;html=1;fillColor=none;gradientColor=none;" parent="1" vertex="1">
                    <mxGeometry x="300" y="310" width="140" height="70" as="geometry"/>
                </mxCell>
                <mxCell id="7" value="" style="endArrow=none;html=1;entryX=0;entryY=0.5;entryDx=0;entryDy=0;" edge="1" parent="1" source="3" target="6">
                    <mxGeometry relative="1" as="geometry">
                        <mxPoint x="240" y="350" as="sourcePoint"/>
                        <mxPoint x="400" y="350" as="targetPoint"/>
                    </mxGeometry>
                </mxCell>
                <mxCell id="11" value="・対戦する&lt;br&gt;・盤面を見る&lt;br&gt;・石を打つ&lt;br&gt;・勝敗を確認する。" style="shape=note;whiteSpace=wrap;html=1;backgroundOutline=1;darkOpacity=0.05;fillColor=#ffe6cc;strokeColor=#d79b00;" vertex="1" parent="1">
                    <mxGeometry x="540" y="190" width="150" height="100" as="geometry"/>
                </mxCell>
                <mxCell id="12" value="" style="endArrow=none;dashed=1;html=1;dashPattern=1 3;strokeWidth=2;entryX=0;entryY=0.5;entryDx=0;entryDy=0;entryPerimeter=0;" edge="1" parent="1" source="6" target="11">
                    <mxGeometry width="50" height="50" relative="1" as="geometry">
                        <mxPoint x="460" y="340" as="sourcePoint"/>
                        <mxPoint x="510" y="290" as="targetPoint"/>
                    </mxGeometry>
                </mxCell>
                <mxCell id="14" value="自分の&lt;br&gt;過去の対戦結果を&lt;br&gt;確認する" style="ellipse;whiteSpace=wrap;html=1;fillColor=none;gradientColor=none;" vertex="1" parent="1">
                    <mxGeometry x="290" y="400" width="140" height="70" as="geometry"/>
                </mxCell>
                <mxCell id="15" value="会員登録・ログインする" style="ellipse;whiteSpace=wrap;html=1;fillColor=none;gradientColor=none;" vertex="1" parent="1">
                    <mxGeometry x="300" y="200" width="140" height="70" as="geometry"/>
                </mxCell>
                <mxCell id="16" value="" style="endArrow=none;html=1;entryX=0;entryY=0.5;entryDx=0;entryDy=0;" edge="1" parent="1" source="3" target="15">
                    <mxGeometry relative="1" as="geometry">
                        <mxPoint x="150" y="355" as="sourcePoint"/>
                        <mxPoint x="310.0000000000016" y="355" as="targetPoint"/>
                    </mxGeometry>
                </mxCell>
                <mxCell id="17" value="" style="endArrow=none;html=1;entryX=0;entryY=0.5;entryDx=0;entryDy=0;" edge="1" parent="1" source="3" target="14">
                    <mxGeometry relative="1" as="geometry">
                        <mxPoint x="150" y="345.57142857142856" as="sourcePoint"/>
                        <mxPoint x="310.0000000000016" y="245" as="targetPoint"/>
                    </mxGeometry>
                </mxCell>
                <mxCell id="18" value="一人で黒白&lt;br&gt;交互に打つ" style="ellipse;whiteSpace=wrap;html=1;fillColor=none;gradientColor=none;" vertex="1" parent="1">
                    <mxGeometry x="510" y="330" width="140" height="70" as="geometry"/>
                </mxCell>
                <mxCell id="19" value="コンピュータと&lt;br&gt;対戦する" style="ellipse;whiteSpace=wrap;html=1;fillColor=none;gradientColor=none;" vertex="1" parent="1">
                    <mxGeometry x="520" y="490" width="140" height="70" as="geometry"/>
                </mxCell>
                <mxCell id="20" value="他のプレイヤーと&lt;br&gt;対戦する" style="ellipse;whiteSpace=wrap;html=1;fillColor=none;gradientColor=none;" vertex="1" parent="1">
                    <mxGeometry x="520" y="580" width="140" height="70" as="geometry"/>
                </mxCell>
                <mxCell id="21" value="Extends" style="endArrow=block;endSize=16;endFill=0;html=1;exitX=0;exitY=0.5;exitDx=0;exitDy=0;entryX=0.965;entryY=0.681;entryDx=0;entryDy=0;entryPerimeter=0;" edge="1" parent="1" source="18" target="6">
                    <mxGeometry width="160" relative="1" as="geometry">
                        <mxPoint x="240" y="420" as="sourcePoint"/>
                        <mxPoint x="400" y="420" as="targetPoint"/>
                    </mxGeometry>
                </mxCell>
                <mxCell id="22" value="Extends" style="endArrow=block;endSize=16;endFill=0;html=1;exitX=0;exitY=0.5;exitDx=0;exitDy=0;entryX=0.9;entryY=0.788;entryDx=0;entryDy=0;entryPerimeter=0;" edge="1" parent="1" source="19" target="6">
                    <mxGeometry width="160" relative="1" as="geometry">
                        <mxPoint x="520" y="420" as="sourcePoint"/>
                        <mxPoint x="445.10000000000014" y="367.66999999999996" as="targetPoint"/>
                    </mxGeometry>
                </mxCell>
                <mxCell id="23" value="Extends" style="endArrow=block;endSize=16;endFill=0;html=1;exitX=0;exitY=0.5;exitDx=0;exitDy=0;entryX=0.793;entryY=0.895;entryDx=0;entryDy=0;entryPerimeter=0;" edge="1" parent="1" source="20" target="6">
                    <mxGeometry width="160" relative="1" as="geometry">
                        <mxPoint x="520" y="505" as="sourcePoint"/>
                        <mxPoint x="436" y="375.15999999999997" as="targetPoint"/>
                    </mxGeometry>
                </mxCell>
                <mxCell id="24" value="プレイヤーの&lt;br&gt;ランキングを確認する" style="ellipse;whiteSpace=wrap;html=1;fillColor=none;gradientColor=none;" vertex="1" parent="1">
                    <mxGeometry x="300" y="530" width="140" height="70" as="geometry"/>
                </mxCell>
                <mxCell id="25" value="" style="endArrow=none;html=1;entryX=0;entryY=0.5;entryDx=0;entryDy=0;" edge="1" parent="1" source="3" target="24">
                    <mxGeometry relative="1" as="geometry">
                        <mxPoint x="150" y="364.42857142857144" as="sourcePoint"/>
                        <mxPoint x="310.0000000000016" y="465" as="targetPoint"/>
                    </mxGeometry>
                </mxCell>
                <mxCell id="26" value="" style="rounded=0;whiteSpace=wrap;html=1;fillColor=none;strokeColor=#FFB1A8;strokeWidth=5;" vertex="1" parent="1">
                    <mxGeometry x="260" y="300" width="430" height="180" as="geometry"/>
                </mxCell>
            </root>
        </mxGraphModel>
    </diagram>
</mxfile>